<?xml version="1.0" standalone="yes"?>
<!-- SVG graphic -->
<svg xmlns='http://www.w3.org/2000/svg' xmlns:xlink='http://www.w3.org/1999/xlink'
 version="1.1">
<rect x="0" y="1.52588e-05" width="6" height="200" stroke="black" stroke-width="1" fill="blue" tooltip="enable"><title>(0,5518)</title></rect><rect x="6" y="130.881" width="6" height="69.1192" stroke="black" stroke-width="1" fill="blue" tooltip="enable"><title>(0.0389661,1907)</title></rect><rect x="12" y="142.189" width="6" height="57.8108" stroke="black" stroke-width="1" fill="blue" tooltip="enable"><title>(0.0779321,1595)</title></rect><rect x="18" y="147.771" width="6" height="52.2291" stroke="black" stroke-width="1" fill="blue" tooltip="enable"><title>(0.116898,1441)</title></rect><rect x="24" y="153.788" width="6" height="46.2124" stroke="black" stroke-width="1" fill="blue" tooltip="enable"><title>(0.155864,1275)</title></rect><rect x="30" y="157.883" width="6" height="42.1167" stroke="black" stroke-width="1" fill="blue" tooltip="enable"><title>(0.19483,1162)</title></rect><rect x="36" y="160.42" width="6" height="39.5796" stroke="black" stroke-width="1" fill="blue" tooltip="enable"><title>(0.233796,1092)</title></rect><rect x="42" y="163.755" width="6" height="36.245" stroke="black" stroke-width="1" fill="blue" tooltip="enable"><title>(0.272762,1000)</title></rect><rect x="48" y="168.068" width="6" height="31.9319" stroke="black" stroke-width="1" fill="blue" tooltip="enable"><title>(0.311728,881)</title></rect><rect x="54" y="169.699" width="6" height="30.3008" stroke="black" stroke-width="1" fill="blue" tooltip="enable"><title>(0.350695,836)</title></rect><rect x="60" y="172.164" width="6" height="27.8362" stroke="black" stroke-width="1" fill="blue" tooltip="enable"><title>(0.389661,768)</title></rect><rect x="66" y="176.404" width="6" height="23.5955" stroke="black" stroke-width="1" fill="blue" tooltip="enable"><title>(0.428627,651)</title></rect><rect x="72" y="177.999" width="6" height="22.0007" stroke="black" stroke-width="1" fill="blue" tooltip="enable"><title>(0.467593,607)</title></rect><rect x="78" y="179.703" width="6" height="20.2972" stroke="black" stroke-width="1" fill="blue" tooltip="enable"><title>(0.506559,560)</title></rect><rect x="84" y="183.472" width="6" height="16.5277" stroke="black" stroke-width="1" fill="blue" tooltip="enable"><title>(0.545525,456)</title></rect><rect x="90" y="185.973" width="6" height="14.0268" stroke="black" stroke-width="1" fill="blue" tooltip="enable"><title>(0.584491,387)</title></rect><rect x="96" y="185.719" width="6" height="14.2805" stroke="black" stroke-width="1" fill="blue" tooltip="enable"><title>(0.623457,394)</title></rect><rect x="102" y="186.626" width="6" height="13.3744" stroke="black" stroke-width="1" fill="blue" tooltip="enable"><title>(0.662423,369)</title></rect><rect x="108" y="187.061" width="6" height="12.9395" stroke="black" stroke-width="1" fill="blue" tooltip="enable"><title>(0.701389,357)</title></rect><rect x="114" y="189.416" width="6" height="10.5835" stroke="black" stroke-width="1" fill="blue" tooltip="enable"><title>(0.740355,292)</title></rect><rect x="120" y="190.359" width="6" height="9.64117" stroke="black" stroke-width="1" fill="blue" tooltip="enable"><title>(0.779321,266)</title></rect><rect x="126" y="189.924" width="6" height="10.0761" stroke="black" stroke-width="1" fill="blue" tooltip="enable"><title>(0.818287,278)</title></rect><rect x="132" y="192.171" width="6" height="7.82892" stroke="black" stroke-width="1" fill="blue" tooltip="enable"><title>(0.857253,216)</title></rect><rect x="138" y="193.005" width="6" height="6.99529" stroke="black" stroke-width="1" fill="blue" tooltip="enable"><title>(0.896219,193)</title></rect><rect x="144" y="194.455" width="6" height="5.54549" stroke="black" stroke-width="1" fill="blue" tooltip="enable"><title>(0.935185,153)</title></rect><rect x="150" y="193.911" width="6" height="6.08916" stroke="black" stroke-width="1" fill="blue" tooltip="enable"><title>(0.974151,168)</title></rect><rect x="156" y="193.44" width="6" height="6.56035" stroke="black" stroke-width="1" fill="blue" tooltip="enable"><title>(1.01312,181)</title></rect><rect x="162" y="194.092" width="6" height="5.90794" stroke="black" stroke-width="1" fill="blue" tooltip="enable"><title>(1.05208,163)</title></rect><rect x="168" y="195.759" width="6" height="4.24067" stroke="black" stroke-width="1" fill="blue" tooltip="enable"><title>(1.09105,117)</title></rect><rect x="174" y="196.086" width="6" height="3.91446" stroke="black" stroke-width="1" fill="blue" tooltip="enable"><title>(1.13002,108)</title></rect><rect x="180" y="196.122" width="6" height="3.87822" stroke="black" stroke-width="1" fill="blue" tooltip="enable"><title>(1.16898,107)</title></rect><rect x="186" y="196.049" width="6" height="3.95071" stroke="black" stroke-width="1" fill="blue" tooltip="enable"><title>(1.20795,109)</title></rect><rect x="192" y="196.992" width="6" height="3.00834" stroke="black" stroke-width="1" fill="blue" tooltip="enable"><title>(1.24691,83)</title></rect><rect x="198" y="197.608" width="6" height="2.39217" stroke="black" stroke-width="1" fill="blue" tooltip="enable"><title>(1.28588,66)</title></rect><rect x="204" y="197.427" width="6" height="2.5734" stroke="black" stroke-width="1" fill="blue" tooltip="enable"><title>(1.32485,71)</title></rect><rect x="210" y="197.245" width="6" height="2.75462" stroke="black" stroke-width="1" fill="blue" tooltip="enable"><title>(1.36381,76)</title></rect><rect x="216" y="197.499" width="6" height="2.50091" stroke="black" stroke-width="1" fill="blue" tooltip="enable"><title>(1.40278,69)</title></rect><rect x="222" y="197.862" width="6" height="2.13846" stroke="black" stroke-width="1" fill="blue" tooltip="enable"><title>(1.44174,59)</title></rect><rect x="228" y="198.26" width="6" height="1.73976" stroke="black" stroke-width="1" fill="blue" tooltip="enable"><title>(1.48071,48)</title></rect><rect x="234" y="197.862" width="6" height="2.13846" stroke="black" stroke-width="1" fill="blue" tooltip="enable"><title>(1.51968,59)</title></rect><rect x="240" y="198.405" width="6" height="1.59478" stroke="black" stroke-width="1" fill="blue" tooltip="enable"><title>(1.55864,44)</title></rect><rect x="246" y="198.514" width="6" height="1.48605" stroke="black" stroke-width="1" fill="blue" tooltip="enable"><title>(1.59761,41)</title></rect><rect x="252" y="198.55" width="6" height="1.4498" stroke="black" stroke-width="1" fill="blue" tooltip="enable"><title>(1.63657,40)</title></rect><rect x="258" y="198.768" width="6" height="1.23233" stroke="black" stroke-width="1" fill="blue" tooltip="enable"><title>(1.67554,34)</title></rect><rect x="264" y="198.369" width="6" height="1.63103" stroke="black" stroke-width="1" fill="blue" tooltip="enable"><title>(1.71451,45)</title></rect><rect x="270" y="198.84" width="6" height="1.15984" stroke="black" stroke-width="1" fill="blue" tooltip="enable"><title>(1.75347,32)</title></rect><rect x="276" y="199.203" width="6" height="0.79739" stroke="black" stroke-width="1" fill="blue" tooltip="enable"><title>(1.79244,22)</title></rect><rect x="282" y="199.166" width="6" height="0.833635" stroke="black" stroke-width="1" fill="blue" tooltip="enable"><title>(1.8314,23)</title></rect><rect x="288" y="198.695" width="6" height="1.30482" stroke="black" stroke-width="1" fill="blue" tooltip="enable"><title>(1.87037,36)</title></rect><rect x="294" y="199.493" width="6" height="0.50743" stroke="black" stroke-width="1" fill="blue" tooltip="enable"><title>(1.90934,14)</title></rect><rect x="300" y="199.203" width="6" height="0.79739" stroke="black" stroke-width="1" fill="blue" tooltip="enable"><title>(1.9483,22)</title></rect><rect x="306" y="199.203" width="6" height="0.79739" stroke="black" stroke-width="1" fill="blue" tooltip="enable"><title>(1.98727,22)</title></rect><rect x="312" y="199.384" width="6" height="0.616165" stroke="black" stroke-width="1" fill="blue" tooltip="enable"><title>(2.02623,17)</title></rect><rect x="318" y="199.348" width="6" height="0.65241" stroke="black" stroke-width="1" fill="blue" tooltip="enable"><title>(2.0652,18)</title></rect><rect x="324" y="199.565" width="6" height="0.43494" stroke="black" stroke-width="1" fill="blue" tooltip="enable"><title>(2.10417,12)</title></rect><rect x="330" y="199.529" width="6" height="0.471185" stroke="black" stroke-width="1" fill="blue" tooltip="enable"><title>(2.14313,13)</title></rect><rect x="336" y="199.638" width="6" height="0.36245" stroke="black" stroke-width="1" fill="blue" tooltip="enable"><title>(2.1821,10)</title></rect><rect x="342" y="199.819" width="6" height="0.181225" stroke="black" stroke-width="1" fill="blue" tooltip="enable"><title>(2.22107,5)</title></rect><rect x="348" y="199.493" width="6" height="0.50743" stroke="black" stroke-width="1" fill="blue" tooltip="enable"><title>(2.26003,14)</title></rect><rect x="354" y="199.384" width="6" height="0.616165" stroke="black" stroke-width="1" fill="blue" tooltip="enable"><title>(2.299,17)</title></rect><rect x="360" y="199.565" width="6" height="0.43494" stroke="black" stroke-width="1" fill="blue" tooltip="enable"><title>(2.33796,12)</title></rect><rect x="366" y="199.71" width="6" height="0.28996" stroke="black" stroke-width="1" fill="blue" tooltip="enable"><title>(2.37693,8)</title></rect><rect x="372" y="199.819" width="6" height="0.181225" stroke="black" stroke-width="1" fill="blue" tooltip="enable"><title>(2.4159,5)</title></rect><rect x="378" y="199.493" width="6" height="0.50743" stroke="black" stroke-width="1" fill="blue" tooltip="enable"><title>(2.45486,14)</title></rect><rect x="384" y="199.638" width="6" height="0.36245" stroke="black" stroke-width="1" fill="blue" tooltip="enable"><title>(2.49383,10)</title></rect><rect x="390" y="199.746" width="6" height="0.253715" stroke="black" stroke-width="1" fill="blue" tooltip="enable"><title>(2.53279,7)</title></rect><rect x="396" y="199.601" width="6" height="0.398695" stroke="black" stroke-width="1" fill="blue" tooltip="enable"><title>(2.57176,11)</title></rect><rect x="402" y="199.601" width="6" height="0.398695" stroke="black" stroke-width="1" fill="blue" tooltip="enable"><title>(2.61073,11)</title></rect><rect x="408" y="199.855" width="6" height="0.14498" stroke="black" stroke-width="1" fill="blue" tooltip="enable"><title>(2.64969,4)</title></rect><rect x="414" y="199.928" width="6" height="0.07249" stroke="black" stroke-width="1" fill="blue" tooltip="enable"><title>(2.68866,2)</title></rect><rect x="420" y="199.855" width="6" height="0.14498" stroke="black" stroke-width="1" fill="blue" tooltip="enable"><title>(2.72762,4)</title></rect><rect x="426" y="199.746" width="6" height="0.253715" stroke="black" stroke-width="1" fill="blue" tooltip="enable"><title>(2.76659,7)</title></rect><rect x="432" y="199.855" width="6" height="0.14498" stroke="black" stroke-width="1" fill="blue" tooltip="enable"><title>(2.80556,4)</title></rect><rect x="438" y="199.746" width="6" height="0.253715" stroke="black" stroke-width="1" fill="blue" tooltip="enable"><title>(2.84452,7)</title></rect><rect x="444" y="199.855" width="6" height="0.14498" stroke="black" stroke-width="1" fill="blue" tooltip="enable"><title>(2.88349,4)</title></rect><rect x="450" y="199.964" width="6" height="0.036245" stroke="black" stroke-width="1" fill="blue" tooltip="enable"><title>(2.92245,1)</title></rect><rect x="456" y="199.891" width="6" height="0.108735" stroke="black" stroke-width="1" fill="blue" tooltip="enable"><title>(2.96142,3)</title></rect><rect x="462" y="199.891" width="6" height="0.108735" stroke="black" stroke-width="1" fill="blue" tooltip="enable"><title>(3.00039,3)</title></rect><rect x="468" y="199.855" width="6" height="0.14498" stroke="black" stroke-width="1" fill="blue" tooltip="enable"><title>(3.03935,4)</title></rect><rect x="474" y="199.855" width="6" height="0.14498" stroke="black" stroke-width="1" fill="blue" tooltip="enable"><title>(3.07832,4)</title></rect><rect x="480" y="199.891" width="6" height="0.108735" stroke="black" stroke-width="1" fill="blue" tooltip="enable"><title>(3.11728,3)</title></rect><rect x="486" y="199.819" width="6" height="0.181225" stroke="black" stroke-width="1" fill="blue" tooltip="enable"><title>(3.15625,5)</title></rect><rect x="492" y="199.964" width="6" height="0.036245" stroke="black" stroke-width="1" fill="blue" tooltip="enable"><title>(3.19522,1)</title></rect><rect x="498" y="199.928" width="6" height="0.07249" stroke="black" stroke-width="1" fill="blue" tooltip="enable"><title>(3.23418,2)</title></rect><rect x="504" y="199.855" width="6" height="0.14498" stroke="black" stroke-width="1" fill="blue" tooltip="enable"><title>(3.27315,4)</title></rect><rect x="510" y="199.928" width="6" height="0.07249" stroke="black" stroke-width="1" fill="blue" tooltip="enable"><title>(3.31211,2)</title></rect><rect x="516" y="199.928" width="6" height="0.07249" stroke="black" stroke-width="1" fill="blue" tooltip="enable"><title>(3.35108,2)</title></rect><rect x="522" y="200" width="6" height="0" stroke="black" stroke-width="1" fill="blue" tooltip="enable"><title>(3.39005,0)</title></rect><rect x="528" y="199.964" width="6" height="0.036245" stroke="black" stroke-width="1" fill="blue" tooltip="enable"><title>(3.42901,1)</title></rect><rect x="534" y="199.928" width="6" height="0.07249" stroke="black" stroke-width="1" fill="blue" tooltip="enable"><title>(3.46798,2)</title></rect><rect x="540" y="199.964" width="6" height="0.036245" stroke="black" stroke-width="1" fill="blue" tooltip="enable"><title>(3.50695,1)</title></rect><rect x="546" y="199.891" width="6" height="0.108735" stroke="black" stroke-width="1" fill="blue" tooltip="enable"><title>(3.54591,3)</title></rect><rect x="552" y="199.964" width="6" height="0.036245" stroke="black" stroke-width="1" fill="blue" tooltip="enable"><title>(3.58488,1)</title></rect><rect x="558" y="199.855" width="6" height="0.14498" stroke="black" stroke-width="1" fill="blue" tooltip="enable"><title>(3.62384,4)</title></rect><rect x="564" y="199.964" width="6" height="0.036245" stroke="black" stroke-width="1" fill="blue" tooltip="enable"><title>(3.66281,1)</title></rect><rect x="570" y="199.964" width="6" height="0.036245" stroke="black" stroke-width="1" fill="blue" tooltip="enable"><title>(3.70178,1)</title></rect><rect x="576" y="199.964" width="6" height="0.036245" stroke="black" stroke-width="1" fill="blue" tooltip="enable"><title>(3.74074,1)</title></rect><rect x="582" y="200" width="6" height="0" stroke="black" stroke-width="1" fill="blue" tooltip="enable"><title>(3.77971,0)</title></rect><rect x="588" y="200" width="6" height="0" stroke="black" stroke-width="1" fill="blue" tooltip="enable"><title>(3.81867,0)</title></rect><rect x="594" y="199.964" width="6" height="0.036245" stroke="black" stroke-width="1" fill="blue" tooltip="enable"><title>(3.85764,1)</title></rect><text x="30" y="240" font-size="20" fill="black">0</text>
<text x="600" y="240" font-size="20" fill="black">3.89661</text>
<polyline points="0,220,600,220" stroke="black" stroke-width="1" fill="none"/>
<text x="720" y="20" font-size="20" fill="black">5518</text>
<text x="720" y="200" font-size="20" fill="black">0</text>
<polyline points="660,0,660,200" stroke="black" stroke-width="1" fill="none"/>
</svg>