ply
format ascii 1.0
comment PCL generated
element vertex 193
property float x
property float y
property float z
element face 376
property list uchar int vertex_indices
end_header
0.38867 -1.0299 -5.3687 
0.41511 -1.0299 -5.1314 
0.39295 -0.79265 -5.3687 
0.41509 -0.79265 -5.1314 
0.3938 -0.5554 -5.3687 
0.41586 -0.5554 -5.1314 
0.44517 -1.0299 -4.8942 
0.44491 -0.79265 -4.8942 
0.44179 -0.5554 -4.8942 
0.48172 -1.0299 -4.6569 
0.4975 -0.79265 -4.6569 
0.50025 -0.5554 -4.6569 
0.4963 -1.0299 -4.4197 
0.52532 -0.79265 -4.4197 
0.5452 -0.5554 -4.4197 
0.39383 -0.31815 -5.3687 
0.41615 -0.31815 -5.1314 
0.39356 -0.080902 -5.3687 
0.41606 -0.080902 -5.1314 
0.44064 -0.31815 -4.8942 
0.44172 -0.080902 -4.8942 
0.49977 -0.31815 -4.6569 
0.49806 -0.080902 -4.6569 
0.55203 -0.31815 -4.4197 
0.54041 -0.080902 -4.4197 
-1.2087 -1.9789 -6.3177 
-1.5668 -2.1655 -5.8432 
-1.0923 -1.9805 -6.3177 
-1.0923 -2.3018 -5.8432 
-1.5668 -1.9789 -6.1788 
-1.0664 -1.9789 -6.3177 
-0.61776 -2.2444 -5.8432 
-0.61776 -1.9789 -6.2019 
-1.5668 -1.8596 -6.3177 
-0.61776 -1.8672 -6.3177 
-1.5668 -2.3372 -5.3687 
-1.0923 -2.4497 -5.3687 
-0.61776 -2.4091 -5.3687 
-0.15655 -1.9789 -5.8432 
-0.14327 -1.5604 -6.3177 
-0.14327 -1.9654 -5.8432 
-0.10398 -1.5044 -6.3177 
0.18372 -1.5044 -5.8432 
-0.14327 -2.1828 -5.3687 
-0.14327 -1.9789 -5.825 
0.072163 -1.9789 -5.3687 
0.32294 -1.5044 -5.3687 
-1.4181 -2.4534 -4.8942 
-1.5668 -2.402 -4.8942 
-1.0923 -2.4534 -5.3524 
-0.61776 -2.4534 -5.1604 
-1.2001 -2.4534 -4.4197 
-1.5668 -2.3485 -4.4197 
-0.7243 -2.4534 -4.4197 
-0.61776 -2.4268 -4.4197 
-0.61776 -2.4534 -4.5897 
-0.54433 -2.4534 -4.8942 
-0.14327 -2.2532 -4.8942 
0.15196 -1.9789 -4.8942 
0.33123 -1.6668 -4.8942 
0.33123 -1.5044 -5.3319 
-0.14327 -2.2117 -4.4197 
0.1119 -1.9789 -4.4197 
0.33123 -1.6466 -4.4197 
-1.5668 -2.1652 -3.9452 
-1.0923 -2.3074 -3.9452 
-1.0923 -2.4534 -4.3329 
-0.61776 -2.3004 -3.9452 
-1.3423 -1.9789 -3.4707 
-1.0923 -2.0421 -3.4707 
-1.5668 -1.9789 -3.5863 
-0.61776 -2.0134 -3.4707 
-1.5668 -1.9147 -3.4707 
-0.14327 -2.0561 -3.9452 
-0.052858 -1.9789 -3.9452 
0.29189 -1.5044 -3.9452 
0.33123 -1.5044 -4.0651 
-0.54293 -1.9789 -3.4707 
-0.14327 -1.9789 -3.8076 
-0.14327 -1.6946 -3.4707 
0.0281 -1.5044 -3.4707 
0.38441 -1.5044 -4.8942 
0.38255 -1.5044 -4.4197 
0.10398 -1.0299 -6.3177 
0.30741 -1.0299 -5.8432 
0.22766 -0.5554 -6.3177 
0.29854 -0.5554 -5.8432 
0.33123 -1.4732 -5.3687 
0.33123 -1.0299 -5.7351 
0.33123 -0.5554 -5.6955 
0.21956 -0.080902 -6.3177 
0.29778 -0.080902 -5.8432 
0.094207 0.39359 -6.3177 
0.29578 0.39359 -5.8432 
0.33123 -0.080902 -5.693 
0.33123 0.39359 -5.6761 
0.37174 0.39359 -5.3687 
0.33123 -1.4234 -3.9452 
0.25984 -1.0299 -3.4707 
0.33123 -1.0299 -3.5965 
0.33123 -0.7851 -3.4707 
0.24525 0.39359 -3.4707 
0.33123 0.14032 -3.4707 
0.33123 0.39359 -3.6284 
0.42687 0.39359 -4.8942 
0.46387 0.39359 -4.4197 
0.44897 -1.0299 -3.9452 
0.48935 -0.5554 -3.9452 
0.37654 -0.5554 -3.4707 
0.4871 -0.080902 -3.9452 
0.4214 0.39359 -3.9452 
0.37665 -0.080902 -3.4707 
0.36758 -0.79265 -5.5074 
0.36873 -0.31815 -5.4989 
0.38264 -1.262 -5.1648 
0.43803 -1.2197 -4.6569 
0.40999 0.1089 -5.1314 
0.47418 0.1089 -4.6569 
0.50103 -0.79265 -4.2299 
0.52281 -0.31815 -4.2299 
-1.9438 -1.5044 -6.3177 
-1.5668 -1.5044 -6.5965 
-2.559 -1.5044 -5.3687 
-2.5158 -1.5509 -5.3687 
-2.5158 -1.5044 -5.4709 
-0.61776 -1.5044 -6.6278 
-2.5997 -1.5044 -4.4197 
-2.5158 -1.5994 -4.4197 
-2.5158 -1.5044 -4.1858 
-2.1345 -1.5044 -3.4707 
-1.5668 -1.5044 -3.0283 
-0.61776 -1.5044 -2.9979 
-2.3367 -0.5554 -6.3177 
-1.5668 -0.5554 -6.9663 
-2.183 0.39359 -6.3177 
-1.5668 0.39359 -6.8177 
-2.863 -0.5554 -5.3687 
-2.5158 -0.5554 -6.1566 
-2.8069 0.39359 -5.3687 
-2.5158 0.39359 -5.9998 
-1.5668 1.1654 -6.3177 
-2.5158 0.7635 -5.3687 
-1.9842 1.3426 -5.3687 
-1.5668 1.3426 -6.1398 
-1.5668 1.6501 -5.3687 
-0.61776 -0.5554 -6.8385 
-0.61776 0.39359 -6.7806 
-0.61776 1.1645 -6.3177 
-0.66449 1.3426 -5.3687 
-0.61776 1.1709 -5.3687 
0.33123 0.65355 -5.3687 
-2.8941 -0.5554 -4.4197 
-2.8316 0.39359 -4.4197 
-2.5158 -0.5554 -3.749 
-2.3119 -0.5554 -3.4707 
-2.5158 0.39359 -3.8314 
-2.2476 0.39359 -3.4707 
-2.5158 0.82292 -4.4197 
-2.0414 1.3426 -4.4197 
-1.5668 1.6729 -4.4197 
-1.5668 1.1894 -3.4707 
-1.5668 1.3426 -3.6494 
-1.5668 -0.5554 -2.8482 
-1.5668 0.39359 -2.9091 
-0.61776 1.3426 -4.5036 
-0.57521 1.3426 -4.4197 
0.33123 0.79717 -4.4197 
-0.61776 1.6714 -4.4197 
-1.1319 1.3426 -3.4707 
-0.24466 1.3426 -3.4707 
-0.61776 1.4059 -3.4707 
-0.832 -0.5554 -2.5217 
-0.61776 -0.88349 -2.5217 
-0.0034208 -0.5554 -2.5217 
0.33123 -0.5554 -3.3683 
-0.61776 0.35835 -2.5217 
-0.61776 0.39359 -2.5456 
-0.61776 -0.5554 -2.3948 
-0.61776 1.3426 -3.3939 
-1.8918 -1.843 -5.8379 
-1.1052 -1.8105 -6.4018 
-0.37069 -1.6091 -6.3952 
-1.9464 -2.0476 -4.8942 
-1.919 -1.8594 -3.9283 
-1.1339 -1.8263 -3.3182 
-0.37873 -1.7391 -3.3761 
-0.20157 -1.0299 -6.4839 
-0.13882 -0.080902 -6.5144 
-0.030513 0.69496 -5.8153 
0.38499 0.5263 -4.8942 
0.38693 0.49449 -4.1032 
-0.041221 -0.97401 -3.1174 
0.35391 -0.26285 -3.4451 
3 3 2 1
3 1 2 0
3 5 4 2
3 2 3 5
3 7 3 1
3 1 6 7
3 8 5 3
3 3 7 8
3 10 7 9
3 9 7 6
3 11 8 7
3 7 10 11
3 13 10 12
3 12 10 9
3 14 11 13
3 13 11 10
3 16 15 4
3 4 5 16
3 18 17 15
3 15 16 18
3 19 16 5
3 5 8 19
3 20 18 16
3 16 19 20
3 21 19 8
3 8 11 21
3 22 20 19
3 19 21 22
3 23 21 14
3 14 21 11
3 24 22 21
3 21 23 24
3 28 27 25
3 28 25 26
3 26 25 29
3 31 32 28
3 28 32 30
3 28 30 27
3 33 29 25
3 30 32 34
3 36 28 35
3 35 28 26
3 37 31 28
3 28 36 37
3 38 32 31
3 40 39 38
3 38 39 32
3 32 39 34
3 42 41 39
3 39 40 42
3 43 44 31
3 43 31 37
3 31 44 38
3 45 44 43
3 38 44 40
3 46 42 45
3 45 42 44
3 44 42 40
3 47 49 35
3 47 35 48
3 35 49 36
3 36 49 37
3 37 49 50
3 51 47 52
3 52 47 48
3 54 55 53
3 57 43 50
3 57 50 56
3 50 43 37
3 58 45 57
3 57 45 43
3 59 60 45
3 59 45 58
3 45 60 46
3 61 57 55
3 61 55 54
3 55 57 56
3 62 58 57
3 57 61 62
3 63 59 58
3 58 62 63
3 65 66 51
3 65 51 64
3 64 51 52
3 67 54 53
3 67 53 66
3 67 66 65
3 69 65 68
3 68 65 64
3 68 64 70
3 71 67 69
3 69 67 65
3 68 70 72
3 73 61 67
3 67 61 54
3 74 62 61
3 61 73 74
3 75 76 74
3 74 76 62
3 62 76 63
3 77 78 67
3 77 67 71
3 67 78 73
3 73 78 74
3 79 78 77
3 80 75 78
3 80 78 79
3 78 75 74
3 81 60 59
3 82 81 63
3 63 81 59
3 63 76 82
3 84 83 42
3 42 83 41
3 86 85 84
3 84 85 83
3 87 88 42
3 87 42 46
3 42 88 84
3 84 88 89
3 89 86 84
3 91 90 85
3 85 86 91
3 93 92 90
3 90 91 93
3 86 89 91
3 91 89 94
3 91 94 93
3 93 94 95
3 0 88 87
3 4 89 112
3 89 88 112
3 88 0 112
3 0 2 112
3 2 4 112
3 17 94 113
3 94 89 113
3 89 4 113
3 4 15 113
3 15 17 113
3 96 95 17
3 17 95 94
3 46 60 87
3 97 76 75
3 98 99 80
3 80 99 97
3 80 97 75
3 100 99 98
3 101 103 102
3 6 1 114
3 1 0 114
3 0 87 114
3 87 60 114
3 60 81 114
3 81 6 114
3 12 9 115
3 9 6 115
3 6 81 115
3 81 82 115
3 82 12 115
3 104 96 116
3 96 17 116
3 17 18 116
3 18 20 116
3 20 104 116
3 105 104 117
3 104 20 117
3 20 22 117
3 22 24 117
3 24 105 117
3 106 12 76
3 106 76 97
3 76 12 82
3 107 14 118
3 14 13 118
3 13 12 118
3 12 106 118
3 106 107 118
3 97 99 106
3 108 107 100
3 100 107 106
3 100 106 99
3 109 24 119
3 24 23 119
3 23 14 119
3 14 107 119
3 107 109 119
3 110 105 109
3 109 105 24
3 111 109 107
3 107 108 111
3 102 103 109
3 102 109 111
3 109 103 110
3 33 121 120
3 123 124 122
3 35 26 179
3 26 29 179
3 29 33 179
3 33 120 179
3 120 124 179
3 124 123 179
3 123 35 179
3 34 125 180
3 125 121 180
3 121 33 180
3 33 25 180
3 25 27 180
3 27 30 180
3 30 34 180
3 41 125 181
3 125 34 181
3 34 39 181
3 39 41 181
3 127 123 126
3 126 123 122
3 52 48 182
3 48 35 182
3 35 123 182
3 123 127 182
3 127 52 182
3 126 128 127
3 72 70 183
3 70 64 183
3 64 52 183
3 52 127 183
3 127 128 183
3 128 129 183
3 129 72 183
3 129 130 72
3 72 130 184
3 130 131 184
3 131 71 184
3 71 69 184
3 69 68 184
3 68 72 184
3 79 77 185
3 77 71 185
3 71 131 185
3 131 80 185
3 80 79 185
3 120 121 133
3 133 132 120
3 132 133 134
3 134 133 135
3 122 124 136
3 136 124 137
3 132 137 120
3 120 137 124
3 136 137 139
3 139 138 136
3 134 139 132
3 132 139 137
3 134 135 140
3 138 139 141
3 141 139 134
3 141 134 142
3 142 134 140
3 142 140 143
3 142 143 144
3 133 121 145
3 145 121 125
3 85 145 186
3 145 125 186
3 125 41 186
3 41 83 186
3 83 85 186
3 135 133 145
3 145 146 135
3 92 146 187
3 146 145 187
3 145 85 187
3 85 90 187
3 90 92 187
3 140 135 146
3 146 147 140
3 147 146 92
3 148 143 147
3 148 147 149
3 147 143 140
3 149 147 188
3 147 92 188
3 92 93 188
3 93 95 188
3 95 150 188
3 150 149 188
3 144 143 148
3 150 95 96
3 126 122 136
3 136 151 126
3 151 136 138
3 138 152 151
3 151 153 128
3 128 126 151
3 129 128 153
3 153 154 129
3 152 155 151
3 151 155 153
3 154 153 156
3 156 153 155
3 152 138 141
3 141 157 152
3 157 141 142
3 142 158 157
3 158 142 159
3 159 142 144
3 157 155 152
3 156 155 158
3 156 158 161
3 156 161 160
3 158 155 157
3 159 161 158
3 154 162 129
3 129 162 130
3 156 163 162
3 162 154 156
3 160 163 156
3 149 164 148
3 165 164 166
3 166 164 149
3 166 149 150
3 159 144 164
3 159 164 167
3 164 144 148
3 167 164 165
3 160 161 168
3 169 165 166
3 169 166 103
3 169 103 101
3 168 161 159
3 168 159 167
3 168 167 170
3 170 167 165
3 165 169 170
3 166 150 189
3 150 96 189
3 96 104 189
3 104 105 189
3 105 166 189
3 105 110 190
3 110 103 190
3 103 166 190
3 166 105 190
3 172 131 130
3 172 130 162
3 172 162 171
3 173 174 191
3 174 100 191
3 100 98 191
3 98 80 191
3 80 131 191
3 131 172 191
3 172 173 191
3 171 162 163
3 171 163 175
3 175 163 176
3 175 176 102
3 175 102 173
3 173 102 174
3 102 176 101
3 171 177 172
3 172 177 173
3 175 177 171
3 173 177 175
3 100 174 108
3 111 108 192
3 108 174 192
3 174 102 192
3 102 111 192
3 168 178 176
3 168 176 163
3 168 163 160
3 101 176 169
3 169 176 178
3 170 178 168
3 169 178 170
